<?xml version="1.0" encoding="UTF-8" standalone="no"?>
<svg
   xmlns:dc="http://purl.org/dc/elements/1.1/"
   xmlns:cc="http://creativecommons.org/ns#"
   xmlns:rdf="http://www.w3.org/1999/02/22-rdf-syntax-ns#"
   xmlns:svg="http://www.w3.org/2000/svg"
   xmlns="http://www.w3.org/2000/svg"
   xmlns:sodipodi="http://sodipodi.sourceforge.net/DTD/sodipodi-0.dtd"
   xmlns:inkscape="http://www.inkscape.org/namespaces/inkscape"
   version="1.1"
   x="0px"
   y="0px"
   viewBox="0 0 100 100"
   enable-background="new 0 0 100 100"
   xml:space="preserve"
   id="svg2"
   inkscape:version="0.91 r13725"
   sodipodi:docname="noun_147113_cc.svg"
   width="100"
   height="100"><metadata
     id="metadata22"><rdf:RDF><cc:Work
         rdf:about=""><dc:format>image/svg+xml</dc:format><dc:type
           rdf:resource="http://purl.org/dc/dcmitype/StillImage" /><dc:title></dc:title></cc:Work></rdf:RDF></metadata><defs
     id="defs20" /><sodipodi:namedview
     pagecolor="#ffffff"
     bordercolor="#666666"
     borderopacity="1"
     objecttolerance="10"
     gridtolerance="10"
     guidetolerance="10"
     inkscape:pageopacity="0"
     inkscape:pageshadow="2"
     inkscape:window-width="1202"
     inkscape:window-height="799"
     id="namedview18"
     showgrid="true"
     inkscape:zoom="8.1792026"
     inkscape:cx="50.053693"
     inkscape:cy="56.103191"
     inkscape:window-x="0"
     inkscape:window-y="0"
     inkscape:window-maximized="0"
     inkscape:current-layer="svg2"><inkscape:grid
       type="xygrid"
       id="grid3350" /></sodipodi:namedview><path fill="white"
     d="m 30.265,53.835 -20.5199999,0 c -1.6600003,0 -3.0000003,1.34 -3.0000003,3 l 0,26.66 c 0,1.66 1.34,3 3.0000003,3 l 20.5199999,0 c 1.65,0 3,-1.34 3,-3 l 0,-26.66 c 0,-1.66 -1.35,-3 -3,-3 z m -3,26.66 -14.52,0 0,-20.66 14.52,0 0,20.66 z"
     id="path4"
     inkscape:connector-curvature="0" /><path fill="white"
     d="m 60.255,44.165 -20.51,0 c -1.66,0 -3,1.34 -3,3 l 0,36.33 c 0,1.66 1.34,3 3,3 l 20.51,0 c 1.66,0 3,-1.34 3,-3 l 0,-36.33 c 0,-1.66 -1.34,-3 -3,-3 z m -3,36.33 -14.51,0 0,-30.33 14.51,0 0,30.33 z"
     id="path6"
     inkscape:connector-curvature="0" /><path fill="white"
     d="m 90.255,68.495 -20.52,0 c -1.65,0 -3,1.35 -3,3 l 0,12 c 0,1.66 1.35,3 3,3 l 20.52,0 c 1.66,0 3,-1.34 3,-3 l 0,-12 c 0,-1.65 -1.34,-3 -3,-3 z m -3,12 -14.52,0 0,-6 14.52,0 0,6 z"
     id="path8"
     inkscape:connector-curvature="0" /><g
     id="g10"
     transform="translate(-0.66500016,0.6650001)"><path fill="white"
       d="m 62.5,25.59 -4.47,3.23 1.609,4.93 c 0.17,0.38 0.271,0.8 0.271,1.25 0,1.66 -1.34,3 -3,3 -0.01,0 -0.01,0 -0.021,0 -0.62,0 -1.239,-0.19 -1.77,-0.58 l -4.45,-3.25 -4.46,3.25 C 45.68,37.81 45.06,38 44.44,38 43.82,38 43.2,37.81 42.68,37.43 41.62,36.66 41.19,35.3 41.59,34.07 l 1.72,-5.25 -4.47,-3.23 c -1.06,-0.76 -1.5,-2.12 -1.1,-3.36 0.4,-1.23 1.55,-2.07 2.85,-2.07 0.01,0 0.01,0 0.01,0 l 5.52,0.01 1.69,-5.25 c 0.4,-1.24 1.55,-2.08 2.86,-2.08 1.3,0 2.45,0.84 2.85,2.08 l 1.69,5.25 5.521,-0.01 0.01,0 c 1.3,0 2.45,0.84 2.85,2.07 0.399,1.24 -0.041,2.6 -1.091,3.36 z"
       id="path12"
       inkscape:connector-curvature="0" /></g></svg>